<svg xmlns="http://www.w3.org/2000/svg" viewBox="0 0 901.39 164.2"><g id="Layer_2" data-name="Layer 2"><g id="Layer_1-2" data-name="Layer 1"><path d="M169.6,97a1.63,1.63,0,0,0-1.2.4q-.41,2.4-1,5.3a11.16,11.16,0,0,0,.4,5.9l1.8-1.6v32A152.5,152.5,0,0,1,150,151.1a117,117,0,0,1-19.1,7.8,113.83,113.83,0,0,1-19.1,4.1,156.3,156.3,0,0,1-19.4,1.2q-6.6,0-14.7-.8a89.77,89.77,0,0,1-16.6-3.3,84.05,84.05,0,0,1-16.7-7,54.55,54.55,0,0,1-14.6-11.7,3.18,3.18,0,0,0-.5,1.1,1.77,1.77,0,0,1-.5.9,2.45,2.45,0,0,1-.4-1.4,9.59,9.59,0,0,0-.2-1.8,5.07,5.07,0,0,1-1.2-2,2.3,2.3,0,0,0-.4,1.6v-1.2a4.55,4.55,0,0,0-.4-1.6,2.45,2.45,0,0,0-.4,1.4v-.2a5.29,5.29,0,0,0-.4-2A4.87,4.87,0,0,0,25,138v1.6h-.2a.4.4,0,0,1-.3-.1.4.4,0,0,0-.3-.1h-.6c.13,0,.2.13.2.4,0-1.2,0-2.37-.1-3.5A11.38,11.38,0,0,0,23,133a35.25,35.25,0,0,0-1.6-3.2q-1.2-2.2-2.6-4.9t-2.7-5.6a21.94,21.94,0,0,1-1.7-5.3h.9a2,2,0,0,0,1.1-.4v-1.4a2.28,2.28,0,0,0-1-.2H14.3a1.24,1.24,0,0,1-.9-.4,2.69,2.69,0,0,1-.6-1.4H1.2L0,93.4c0-.4.07-1.8.2-4.2s.27-4.4.4-6V80.7c0-1,0-2,.1-3a7.59,7.59,0,0,1,.6-2.6A2.73,2.73,0,0,1,3,73.6V44.4H17a1.77,1.77,0,0,0,.5-.8,1.77,1.77,0,0,1,.5-.8.94.94,0,0,0-.9-.3,5.35,5.35,0,0,1-1.1.1,5.07,5.07,0,0,0,.4-1.9V38.8a19.13,19.13,0,0,1,2,.1,1.67,1.67,0,0,0,1.6-.7,20.84,20.84,0,0,0,1.6-1.9c.67-.87,1.4-1.83,2.2-2.9s1.6-2.23,2.4-3.5a40,40,0,0,0,2-3.5,6.87,6.87,0,0,0,.3-3.2c-.07-1.73-.1-3.33-.1-4.8h5a1.47,1.47,0,0,1,.4,1.1,1.47,1.47,0,0,0,.4,1.1,60.42,60.42,0,0,1,14.5-9.9A83.28,83.28,0,0,1,64.2,5,91.05,91.05,0,0,1,79.8,2.4q7.8-.6,15.2-.6,9,0,19.8,1a71.67,71.67,0,0,1,21.1,5.3,55,55,0,0,1,18.8,13.3q8.51,9,12.5,24.8l-29.4,5.2a2.28,2.28,0,0,1-1.9-.7,3.2,3.2,0,0,0-1.7-.9H118.4a15.8,15.8,0,0,0-3.8-5.5,28.33,28.33,0,0,0-5.8-4.3,33.57,33.57,0,0,0-6.4-2.8,18.56,18.56,0,0,0-5.4-1H94.4V63.4c0,.53.13.77.4.7a.48.48,0,0,1,.6.3,12.9,12.9,0,0,1,.3,3.6c-.07,1.2-.1,2.4-.1,3.6l39.4.2a18.58,18.58,0,0,1,3.1,1.5,9.63,9.63,0,0,0,3.3,1.3,39,39,0,0,0,7.8.4q3.8-.19,7.8,0H143c-.27.27-.3.43-.1.5a2.11,2.11,0,0,0,.7.1l-12.8,5.8a1.36,1.36,0,0,0,1.2,1,7.88,7.88,0,0,0,2.2.1q1.2-.1,2.4-.3a13,13,0,0,1,2-.2c2.13-.13,4.67-.23,7.6-.3s5.77-.17,8.5-.3,5.1-.23,7.1-.3,3.13-.1,3.4-.1a13.2,13.2,0,0,1,1.5.1,13.2,13.2,0,0,0,1.5.1,1.5,1.5,0,0,0,.4.7,1.25,1.25,0,0,0,1,.5ZM24.2,137v-3h-.8v3Zm.8,2v-3.8h-.8V139Zm125.8-8.2H98.9q-25.91,0-51.9-.2l-.7-.7a1,1,0,0,1-.3-.7H34.6a3.69,3.69,0,0,0-.9-1.2,1.25,1.25,0,0,1-.5-1V113.8H64a38,38,0,0,0,7.2,8.1,36.09,36.09,0,0,0,7.7,4.9,29.06,29.06,0,0,0,7.9,2.4,50.28,50.28,0,0,0,24-2.1,59.22,59.22,0,0,0,15.2-7.3v-3.2h-9.2L118.4,97h-24V75.6c0-.53-.13-.8-.4-.8a1.14,1.14,0,0,1-.8-.4V70.8a12.28,12.28,0,0,0-.1-1.6,5.66,5.66,0,0,1,.1-1.8c.27-.27.47-.33.6-.2s.2-.07.2-.6V36.2H89.8a21.33,21.33,0,0,0-6.3,1.1,41,41,0,0,0-6.9,2.9,33.55,33.55,0,0,0-6.3,4.3,24.74,24.74,0,0,0-4.7,5.3H45a4.72,4.72,0,0,0-.7.9,4.72,4.72,0,0,1-.7.9,8.15,8.15,0,0,1,1,1.2,6.72,6.72,0,0,0,.8,1H63a.82.82,0,0,1,.6.2,43.84,43.84,0,0,0-4.2,13.7,109.14,109.14,0,0,0-1,14.9c0,.27,0,.93.1,2s.13,2.3.2,3.7.13,2.87.2,4.4.1,2.9.1,4.1l-.4.2H32.2V92.3a24.86,24.86,0,0,1-.4,4.5,2.24,2.24,0,0,1-.5.9,2.54,2.54,0,0,0-.5.7,16.9,16.9,0,0,0-.2,2.7,6.72,6.72,0,0,0,.4,2.5c.93.67,1.3,1.9,1.1,3.7a41,41,0,0,0-.3,4.3.63.63,0,0,1-.6.4h-.6a2,2,0,0,0-.2.9,1.24,1.24,0,0,1-.4.9h1a1.35,1.35,0,0,1,1,.4,3.91,3.91,0,0,1-.4,1.8,3.17,3.17,0,0,0-.4,1.4v12.8c0,.53.1.87.3,1s.1.33-.3.6Zm-87.6-19H32.4V104H60.8a39.55,39.55,0,0,0,1.1,3.9Zm64-14.6h-8L118,112.6h8v-14a4.61,4.61,0,0,0,.6-.7A4.61,4.61,0,0,1,127.2,97.2Zm-.8-44a20.76,20.76,0,0,1-2.8.7c-1.07.2-2.13.43-3.2.7a4.34,4.34,0,0,1,.1-.9c.07-.33,0-.5-.3-.5Z"/><path d="M186.4,125.8l-.4,14.6h-.6l.4-14.6ZM321,162.4H196.8v-4.8a9.09,9.09,0,0,0-3.1-.3,15.55,15.55,0,0,1-3.1-.1q-.79-1-2.1-3a6.63,6.63,0,0,1-1.3-2.8V124.6q1.59-1.6,3-3.3t3-3.9l-.4-4.8-1.7,1.7a15,15,0,0,1-2.3,1.9v-1.8c0-.53.57-1.27,1.7-2.2a20.67,20.67,0,0,0,2.7-2.6v-.2a.59.59,0,0,0-.2-.4,6.78,6.78,0,0,1-1.8,1.9,22.53,22.53,0,0,0-2.4,2.1,2.88,2.88,0,0,1,.8-3.3,34,34,0,0,0,3-2.7,1.33,1.33,0,0,1-.1.6q-.1.2.3.6V98a5.31,5.31,0,0,1-1.6,2,12.37,12.37,0,0,1-2.4,1.6V99.8a14,14,0,0,0,2-2,12.37,12.37,0,0,0,1.6-2.4l-.4-48,1,.8h.2a.59.59,0,0,0,.4-.2,7.06,7.06,0,0,0-1.1-1.2,4.61,4.61,0,0,1-.9-1,1.31,1.31,0,0,0,1.6.4l-1.6-1.6,1,.8h.2a.59.59,0,0,0,.4-.2l-1.6-1.8,1,.8h.2a.59.59,0,0,0,.4-.2l-1.6-1.8,1,.8h.2a.59.59,0,0,0,.4-.2l-1.6-1.6V33.8a3.33,3.33,0,0,1,1.7,1.8,7.3,7.3,0,0,1,.3,2.1c0,.73,0,1.47-.1,2.2a2.64,2.64,0,0,0,.5,1.9,3.83,3.83,0,0,0,.4-1.7V38.4a8,8,0,0,0-.2-2.3,2.33,2.33,0,0,0-.5-.8l-.8-.8a8.85,8.85,0,0,1-1.3-2.1,5.76,5.76,0,0,1-.7-2.6,24.41,24.41,0,0,1,0-3.2c.07-1.07.13-2,.2-2.8s.1-1.33.1-1.6a19.67,19.67,0,0,1,.4-4.1c.27-1.27,1.87-2,4.8-2.3a41.82,41.82,0,0,0,0-10h49v11H228.6a89.63,89.63,0,0,0-1.9,9.3c-.47,3.13-1,6.37-1.7,9.7H209.8v3h35.6v5a5.53,5.53,0,0,0,2.1.4,23.56,23.56,0,0,0,3.5-.4V73l-.2-19a5.26,5.26,0,0,0-2.5-.2,16.92,16.92,0,0,1-2.5.2v57l4.2.4v-18q.19,7.8.1,15.1a127.58,127.58,0,0,1-1.1,14.9.59.59,0,0,0,.2.4,1.14,1.14,0,0,0,.8.4h71ZM192.6,99.8l-2.7,2.7c-1.14,1.13-1.5,2.23-1.1,3.3a12,12,0,0,0,3-2.8A3.68,3.68,0,0,0,192.6,99.8Zm0,3.6a8.65,8.65,0,0,1-2.8,2.5c-.93.47-1.27,1.63-1,3.5.93-.8,1.93-1.73,3-2.8S193.13,104.47,192.6,103.4Zm2-40.6a1.73,1.73,0,0,1-.5,1.6c-.47.53-.9,1-1.3,1.4V61c.53.53.93.8,1.2.8a17.26,17.26,0,0,1,.1-5.6,35.71,35.71,0,0,0,.5-6.2Zm43.6,96V157H209.6l-.4,1.8Zm17.9-17h-4.7a11.11,11.11,0,0,0-2,.1,1.3,1.3,0,0,0-.6.3V144a4.87,4.87,0,0,1-.4,1.8h-4.2a4.87,4.87,0,0,1-.4-1.8v-1.4a3.38,3.38,0,0,1-1-.2q-.6-.19-.6-.6H213.8c-.4-1.07-.77-2.13-1.1-3.2s-.63-2.13-.9-3.2H210v2a2.45,2.45,0,0,0,.4,1.4,4.81,4.81,0,0,1,.6,1.2c.13,1.47.2,2.9.2,4.3v4.3h29.2c.27,1.47.53,2.93.8,4.4s.53,2.73.8,3.8h19a91.2,91.2,0,0,1,3.6-15ZM250.8,92h-.6V73.8h.6Z"/><path d="M392.8,93.6l-2,19.8H378a.82.82,0,0,0,.6.2c.26,0,.9,0,1.9-.1s2.43-.13,4.3-.2,4.53-.1,8-.1v47.4H344.2V141c-1.2,1.07-2.4,2.23-3.6,3.5s-2.4,2.5-3.6,3.7a25.77,25.77,0,0,0-.5-4.8,5.67,5.67,0,0,1,.5-4.2,11.5,11.5,0,0,1,3.1-4q2.1-1.8,4.3-4l-.2-4.2-7.2,7.6a25.77,25.77,0,0,0-.5-4.8,5.67,5.67,0,0,1,.5-4.2,12.23,12.23,0,0,1,3.4-4.4,28.53,28.53,0,0,0,4-4l-.2-3.8L337,121a32.54,32.54,0,0,0-.4-4.8,6.92,6.92,0,0,1,.4-4.2,10.06,10.06,0,0,1,3.3-4.4,25.89,25.89,0,0,0,4.1-4l-.2-3.8-7.2,7.6a32.54,32.54,0,0,0-.4-4.8,6.92,6.92,0,0,1,.4-4.2,10.06,10.06,0,0,1,3.3-4.4,25.89,25.89,0,0,0,4.1-4l-.2-3.8L337,93.8a24.28,24.28,0,0,0-.5-4.7,7.45,7.45,0,0,1,.5-4.7,9.6,9.6,0,0,1,3.3-4.1,22.62,22.62,0,0,0,4.1-3.9l-.2-3.8c-1.07,1.07-2.24,2.23-3.5,3.5a54.7,54.7,0,0,0-3.7,4.1,24.28,24.28,0,0,0-.5-4.7,7.45,7.45,0,0,1,.5-4.7,10.24,10.24,0,0,1,3.1-4.1,54.81,54.81,0,0,0,4.3-3.9l-.2-3.8-3.5,3.5a54.7,54.7,0,0,0-3.7,4.1,24.28,24.28,0,0,0-.5-4.7,7.45,7.45,0,0,1,.5-4.7,12.9,12.9,0,0,1,3-3.4,46,46,0,0,0,4.4-4.6,1.55,1.55,0,0,0,.2-1.4,4.81,4.81,0,0,1,0-2,3.47,3.47,0,0,0,3.7-1q1.5-1.61,3.7-3.6l-.2-4.2L337,52.6a25.77,25.77,0,0,0-.5-4.8,5.67,5.67,0,0,1,.5-4.2,13.13,13.13,0,0,1,3.6-4.6q2.4-2,4.6-4.2a2.08,2.08,0,0,1-.5-1.3,11.16,11.16,0,0,0-.5-2.1L337,39c0-1.47,0-3-.1-4.6A29.86,29.86,0,0,1,337,30q2.4-2.4,3.7-4l2.5-3.1a4.6,4.6,0,0,0,1.2-2.1V3.8h48.4V34.2h-2a6.22,6.22,0,0,0-.3,3.4,30.71,30.71,0,0,0,.8,3.8q.49,1.8,1.5,4.6v3.8H352.6L350.4,52h42.4ZM363.6,45.8q-.6-3.4-.9-6.3c-.2-1.93-.44-3.7-.7-5.3h-4l2,11.6Zm4.8,0-2-11.6h-3.6q.6,3.6.9,6.4c.2,1.87.43,3.6.7,5.2Zm4.4,0q-.6-4.39-.9-6.8c-.2-1.6-.44-3.2-.7-4.8h-4l2,11.6Zm4.8,0-2-11.6H372q.6,3.6.9,6.4c.2,1.87.43,3.6.7,5.2Zm4.4,0-1.6-11.6h-4l2,11.6Zm4.8,0-2-11.6h-3.6q.39,3,.8,5.9t.8,5.7Zm4.4,0q-.6-4.39-.9-6.8c-.2-1.6-.44-3.2-.7-4.8h-4l2,11.6Z"/><path d="M558,45H541.2a1.27,1.27,0,0,0,1.7.9,9.48,9.48,0,0,1,1.9-.3,38.15,38.15,0,0,1-3.9,2.7c-1.8,1.13-3,1.7-3.5,1.7a4.7,4.7,0,0,1-1.3-.8c-.74-.53-2-.47-3.7.2l-.6.4V35.25q-2.2-1.61-4.9-3.53c-1.8-1.28-3-1.92-3.5-1.92H476a1.88,1.88,0,0,0-1,1.08,14.7,14.7,0,0,1-.6,1.52h-12a2.15,2.15,0,0,1-1.6-1c-.54-.64-1-1.26-1.4-1.83H410.6v-24h28.6a7.22,7.22,0,0,0-.8-.6,7.48,7.48,0,0,1-1.2-1H523a3.92,3.92,0,0,1,2.1,1,3.82,3.82,0,0,0,2.1,1H558V35l-16,.2-.4,2.6H558Zm-28.4,4H509.2a11.83,11.83,0,0,0-.8,1.4l-.8,1.6H489.2a4.17,4.17,0,0,0-2,.7q-1.2.7-2.4,1.5h21V76.6H460.2V59.2h-29q1.4-1.2,3.3-2.7c1.26-1,2.5-1.93,3.7-2.8l3.2-2.3a4.82,4.82,0,0,1,1.8-1H455a8.36,8.36,0,0,0,2-.4,9.46,9.46,0,0,0,2.6-1.2H429a3.36,3.36,0,0,0-.2-1.6v.4c0,.27-.2.4-.6.4s-.67-.07-.4-.2.26-.33,0-.6l-.8.6a4.73,4.73,0,0,0-.3-1.3,4.94,4.94,0,0,1-.3-1.5,1.39,1.39,0,0,0-.5-.3,5.65,5.65,0,0,0-1.4-.1h-8.9c.53-.41,1.2-1,2-1.74s1.6-1.46,2.4-2.14a19.82,19.82,0,0,1,2.5-1.84,3.48,3.48,0,0,1,2.5-.62c.26-.27.36-.34.3-.2s-.1-.07-.1-.62q0-2-.6-2h-1.8a6.7,6.7,0,0,0-3.1,1.1A32.47,32.47,0,0,0,416,39c-1.2.93-2.3,1.87-3.3,2.8a21.74,21.74,0,0,1-2.1,1.8V31h44c.53,0,1.36.53,2.5,1.6s2,1.6,2.5,1.6l18.2.2a13.88,13.88,0,0,0,1.2-1.49A18.58,18.58,0,0,1,480.6,31h25.2a2,2,0,0,1,1.5.9,1.92,1.92,0,0,0,1.5.9h14.6a5.82,5.82,0,0,1,2.7,1.5,38.89,38.89,0,0,0,3.5,2.5ZM440,38.2a6.8,6.8,0,0,1-1.8-1.72,2.16,2.16,0,0,0-1.6-1.08l-9.2.2a5.53,5.53,0,0,0,.2,1.4,5.62,5.62,0,0,1,.2,1.2Zm17.2,8.4V44.8H429v.8c0,.67.13,1,.4,1ZM446.8,3a5,5,0,0,1-2.2-.6c-.8-.4-1.54-.8-2.2-1.2h2.2a1.35,1.35,0,0,1,1.2.6A7.57,7.57,0,0,0,446.8,3Zm4.4,0a3.42,3.42,0,0,1-1.9-.2,9.8,9.8,0,0,1-2.9-1.6h2.2a1.94,1.94,0,0,1,1.3.7A8.46,8.46,0,0,0,451.2,3Zm4,0a3.42,3.42,0,0,1-1.9-.2,9.8,9.8,0,0,1-2.9-1.6h2.8q.39.41.9.9A7.43,7.43,0,0,0,455.2,3Zm4,0a2.73,2.73,0,0,1-1.9-.5,23.78,23.78,0,0,0-2.9-1.3h2.8q.39.41.9.9A7.43,7.43,0,0,0,459.2,3Zm.8,43.4v-.6l-1.8.4v.6ZM463.2,3a2.73,2.73,0,0,1-1.9-.5,23.78,23.78,0,0,0-2.9-1.3h2.8q.39.41.9.9A7.43,7.43,0,0,0,463.2,3Zm45.2,160H460.2V143.6h5.6a3.07,3.07,0,0,0-.3-.7,4.89,4.89,0,0,1-.1-1.5v-5c0-2.4.06-6.13.2-11.2a1.12,1.12,0,0,1,.8-.4,1.16,1.16,0,0,0,.8-.4c0-.67,0-1.6.1-2.8s.16-2.37.3-3.5.23-2.2.3-3.2.1-1.63.1-1.9,0-.8-.1-1.6-.17-1.7-.3-2.7-.24-2-.3-3-.1-1.9-.1-2.7a4.82,4.82,0,0,0-3.2-.8,18.45,18.45,0,0,1-3.8,0V78.4h45.4V117a2.88,2.88,0,0,0,.9,1.8c.6.67,1.23,1.33,1.9,2ZM467.2,3a2.73,2.73,0,0,1-1.9-.5,23.78,23.78,0,0,0-2.9-1.3h2.8q.39.41.9.9A7.43,7.43,0,0,0,467.2,3Zm4,0a2.73,2.73,0,0,1-1.9-.5,23.78,23.78,0,0,0-2.9-1.3h2.8q.39.41.9.9A7.43,7.43,0,0,0,471.2,3Zm4,0a2.55,2.55,0,0,1-2.3-.3c-.74-.47-1.57-1-2.5-1.5h2.8q.39.41.9.9A7.43,7.43,0,0,0,475.2,3Zm4,0a9.15,9.15,0,0,1-2.2-.5,4.26,4.26,0,0,1-2.2-1.3h2.4q.39.41.9.9A7.43,7.43,0,0,0,479.2,3Zm4,0a9.15,9.15,0,0,1-2.2-.5,4.26,4.26,0,0,1-2.2-1.3h2.4q.39.41.9.9A7.43,7.43,0,0,0,483.2,3Zm4,0a9.15,9.15,0,0,1-2.2-.5,4.26,4.26,0,0,1-2.2-1.3H485a1.35,1.35,0,0,1,1.2.6A7.57,7.57,0,0,0,487.2,3Zm2,34.8a27.22,27.22,0,0,1-2.5-1.53,4.19,4.19,0,0,0-2.1-.87l-1.4.2q1.59.8,3.3,1.5A7.53,7.53,0,0,0,489.2,37.8Zm2-34.8a9.15,9.15,0,0,1-2.2-.5,4.26,4.26,0,0,1-2.2-1.3h2.4q.39.41.9.9A7.43,7.43,0,0,0,491.2,3Zm3.2,33.6V36h-1v.8Zm13.2-1.2-4.4.2a7.68,7.68,0,0,1,1.5,1,2.06,2.06,0,0,0,1.3.6.93.93,0,0,0,1-.68A2.8,2.8,0,0,1,507.6,35.4Zm13.2,10.2V45h-1.4v.6Zm1.2-7.8V35.4l-1.4.2v2.2Zm9.6-4.6V29.8H526a23.93,23.93,0,0,1,2.9,1.8A14.5,14.5,0,0,0,531.6,33.2Z"/><path d="M719.8,112H701v2.4h18.2q-5.21,15.41-12.8,24.8a57.2,57.2,0,0,1-16.9,14.5,63.16,63.16,0,0,1-19.6,6.9,118.91,118.91,0,0,1-20.5,1.8,116,116,0,0,1-14.5-.7l-9.9-1.3a25.16,25.16,0,0,1-2.9-.7c-1.14-.33-2.3-.7-3.5-1.1s-2.27-.73-3.2-1a9,9,0,0,0-1.8-.4H596a6,6,0,0,0-.2-1.4,5,5,0,0,1-.2-1.2l10.8-.4a50.46,50.46,0,0,1-10.6-6.8,65.35,65.35,0,0,1-10-10.2,5,5,0,0,0-.3,2.3c.06.87.1,1.57.1,2.1s0,1.2-.1,2a7.52,7.52,0,0,0,.1,2.2,25.71,25.71,0,0,0,1.2,4.4,37.89,37.89,0,0,0,1.8,4.2,2.72,2.72,0,0,0,1.8.2,9.91,9.91,0,0,1,1.9-.2,2.8,2.8,0,0,1,1.7.6,3.71,3.71,0,0,1,1,2.6h-7.4a38.48,38.48,0,0,0-1.2-4.4q-.81-2.4-1.5-5.1t-1.3-5.4a17.76,17.76,0,0,1-.4-5.3H563.6a27.88,27.88,0,0,1,2.5-2.6q1.5-1.4,3.1-3-1-2.2-2.1-5.1A14.62,14.62,0,0,1,566,123V108.4c-.4-.4-.8-.77-1.2-1.1s-.8-.7-1.2-1.1H566V61.6a46.22,46.22,0,0,1-4.4-5c.26-.27.76-.3,1.5-.1a7.32,7.32,0,0,0,1.9.3h2.2a8.69,8.69,0,0,0,.3-1.8,7.3,7.3,0,0,1,.5-2.2,3.53,3.53,0,0,1,1.2-1.6,2.49,2.49,0,0,1,2.4,0q4.8-15.8,13.1-25.8A63.1,63.1,0,0,1,603.4,9.8a74.08,74.08,0,0,1,21.8-7.7A122.44,122.44,0,0,1,647.4,0a127.12,127.12,0,0,1,21.1,1.8,63.63,63.63,0,0,1,20.3,7.1,61.54,61.54,0,0,1,17.5,14.8q7.89,9.5,12.9,25.1l-42.8,9.6a19.43,19.43,0,0,0-3.1-7.6,39.54,39.54,0,0,0-5.9-7,31.91,31.91,0,0,0-7.3-5.2,18.36,18.36,0,0,0-7.1-2.2l-7.4.4c.26,1.07.8,1.43,1.6,1.1a1.93,1.93,0,0,1,1.8-.1,11.85,11.85,0,0,0,1.1,2.1,3.78,3.78,0,0,1,.7,1.9v70.6a1.07,1.07,0,0,1-.4.9,1,1,0,0,0-.4.9,9,9,0,0,0,3.8,0,5.46,5.46,0,0,1,3.6.4,11.49,11.49,0,0,1,2.6,1.6,9.63,9.63,0,0,0,1,.9,2.51,2.51,0,0,0,1.2.4,28,28,0,0,0,3,.1,7.39,7.39,0,0,1,1.5.2,1.35,1.35,0,0,0,1.3-.2,28.45,28.45,0,0,0,6.7-10.3A83.12,83.12,0,0,0,678,96h2a13.36,13.36,0,0,1,2.2.5c1.2.33,2.56.73,4.1,1.2s3.1,1,4.7,1.5,2.93,1,4,1.4a5.22,5.22,0,0,1,1.2,1.2,13.39,13.39,0,0,0,1.2,1.4,27.35,27.35,0,0,1,6.1.3,47.26,47.26,0,0,1,6.1,1.4c2,.6,4,1.27,5.9,2a48.27,48.27,0,0,0,5.3,1.7A5.67,5.67,0,0,0,719.8,112ZM583.2,68.2H568.6V66.4c-.27.67-.5,1.3-.7,1.91a5,5,0,0,0-.3,1.52L567.2,101a9.36,9.36,0,0,0,1.4.9,10.65,10.65,0,0,1,1.2.7,1,1,0,0,0-.3-.7c-.2-.2-.44-.43-.7-.7.26-.27.46-.4.6-.4s.2-.13.2-.4c-.27-1.47-.5-2.9-.7-4.3s-.37-2.63-.5-3.7a15.48,15.48,0,0,1-.1-3.1,14.63,14.63,0,0,0-.1-2.9,19.93,19.93,0,0,1-.4-2.6c-.14-1.2.13-2,.8-2.4H583V78.6H568V76a31.57,31.57,0,0,1,.4-6.42,1.87,1.87,0,0,1,2-1.53,29.76,29.76,0,0,1,4.6.51A26.89,26.89,0,0,0,583.2,68.2Zm-13,37.8v-1.4a4.41,4.41,0,0,0-1.4-.8,8.77,8.77,0,0,1-1.6-.8v3Zm8.6,21.2c-.8-1.6-1.64-3.23-2.5-4.9s-1.64-3.3-2.3-4.9a5.71,5.71,0,0,1-.4-1.4,2.87,2.87,0,0,0-.6-1.4c-.94-.93-1.9-1.83-2.9-2.7a18.23,18.23,0,0,0-2.9-2.1v8.4a31.13,31.13,0,0,0,.9,6.9q.9,3.9,1.5,5.7a9.47,9.47,0,0,0,2-1.3l1.6-1.4a4.68,4.68,0,0,1,2.1-1A9,9,0,0,1,578.8,127.2ZM583,62.8V61h-2.6l-1.6,1.8ZM583,96V92.6a4.94,4.94,0,0,1-.3,1.5,4.94,4.94,0,0,0-.3,1.5Zm34,.2V90l-.2-18v6.8H584.4V81a3.1,3.1,0,0,0,1.1.5.62.62,0,0,1,.5.7,9.27,9.27,0,0,1-.8,2.8,9,9,0,0,0-.8,2.8v8.4Zm.4-33.8V60.6H585.6v2.2h29a2.62,2.62,0,0,1,.2-1.3q.19-.3,1.2-.3a2,2,0,0,1,.9.1A7.22,7.22,0,0,1,617.4,62.4Zm-29.2,6.2V68h-2.6v.6Zm7,16c-.27,1.2-.6,2.5-1,3.9s-.8,2.7-1.2,3.9h-2.2c.4-1.33.73-2.67,1-4a30.57,30.57,0,0,1,1-3.8Zm4.4,0q-.6,1.8-1.2,3.9c-.4,1.4-.74,2.7-1,3.9h-2.6q.6-1.8,1.2-3.9t1.2-3.9Zm4.4.4c-.4,1.2-.8,2.43-1.2,3.7s-.74,2.5-1,3.7h-2.6q.6-1.8,1.2-3.9t1.2-3.9Zm13-15v-.6H603.2V70Zm-9,16.4a8.87,8.87,0,0,1-.8,2.5c-.54,1.27-1,2.43-1.4,3.5h-2.2q.6-1.8,1.2-3.9t1.2-3.9h2Zm9-17.8V68H604.8v.6ZM611.6,85a6.69,6.69,0,0,1-.1,3.4,14.65,14.65,0,0,0-.5,4h-3a25.75,25.75,0,0,1,.9-4,23.2,23.2,0,0,1,1.5-4Zm4.4,1.8a11.38,11.38,0,0,1-.5,2.6q-.51,1.8-.9,3H612a13.18,13.18,0,0,0,1-3.4c.26-1.47.66-2.2,1.2-2.2s.76.1.7.3,0,.3.3.3a1.92,1.92,0,0,0,.2-1.5,2.71,2.71,0,0,1,0-1.5A5.33,5.33,0,0,1,616,86.8ZM650,94V47.8q-2.21,1-3.3,0a5.17,5.17,0,0,1-1.5-2.9c-.27-1.27-.5-2.6-.7-4a8,8,0,0,0-1.1-3.3H639a9.65,9.65,0,0,0-5.1,1.9,42.87,42.87,0,0,0-5.7,4.5,40.15,40.15,0,0,0-4.9,5.4,13.18,13.18,0,0,0-2.5,4.6h17.6a1.79,1.79,0,0,1,1.4.7c.4.47.73.83,1,1.1a4.51,4.51,0,0,1-2.7,1.8,3.84,3.84,0,0,1-2.5,0,19.57,19.57,0,0,0-.8,1.8,1.79,1.79,0,0,1-1.2,1.2H618V99.8a24.69,24.69,0,0,0,1.1,4.5,60.72,60.72,0,0,0,2.1,6.1,1.85,1.85,0,0,0,.8-.2,2.8,2.8,0,0,1,1.2-.2,6.5,6.5,0,0,1,2.8.8c-.54-.53-.27-.8.8-.8a7.09,7.09,0,0,1,2.7,1,29.87,29.87,0,0,1,3.3,2,33.39,33.39,0,0,1-5.4.3c-1.34-.07-2.27-.1-2.8-.1-1.2,0-1.8.13-1.8.4q2.6.41,6,.6c2.26.13,3.66.2,4.2.2h16.2V95c0-.53.13-.7.4-.5S650,94.53,650,94Zm-.6-37.6q-.6-1.8-1.5-3.9t-1.5-3.9h3Z"/><path d="M901.39,114.8a98.3,98.3,0,0,0-3,11.2h-8a6.46,6.46,0,0,0-.2,3.6h-20.8a4.34,4.34,0,0,0-.1-.9,2.28,2.28,0,0,0-.7-1.1h-14.8V126h14.6v-.2a.59.59,0,0,0,.2-.4q0-3.41-3.4-3.4h-11a10.4,10.4,0,0,1,.1-1.3,1.21,1.21,0,0,0-.3-1.1,3.32,3.32,0,0,0-.8,3.2,5.4,5.4,0,0,1-.4,3.6v-6.8a27.68,27.68,0,0,0-.6,3.2,25.7,25.7,0,0,1-.6,3.2c.27-2,.43-4,.5-6a13.86,13.86,0,0,0-.7-5.2h-24q.4-2.4.6-5.1t.6-5.1h12.8V99.2h-22l2.8-8.8h15.2a16.74,16.74,0,0,1,1.5-1.3,5.32,5.32,0,0,1,1.5-.9,1.58,1.58,0,0,1,1.1,0,1,1,0,0,0,1.1-.2,30.87,30.87,0,0,0,3.3-2.9c1.14-1.13,2.3-2.37,3.5-3.7h-24a16.74,16.74,0,0,0,.7-2.2,11.72,11.72,0,0,1,.9-2.4H758.88l-.21.4v2.2c.27.27.44.43.5.5a2,2,0,0,0,.91.1l63.52-.2a.83.83,0,0,1-.2.9,1.25,1.25,0,0,1-1,.5l-63.92.4c0,.53.4.8,1.19.8L823,82.2a36.52,36.52,0,0,1-1.79,5l-62.53.8h39.52a1.47,1.47,0,0,1,.9.4,1.7,1.7,0,0,0,1.1.4h13.6a2.93,2.93,0,0,0,3.3,1.8,6.7,6.7,0,0,1,3.3,0,22.89,22.89,0,0,1-1,3.1c-.4,1-.8,2-1.2,3.1H758.87c-.27.27-.3.5-.1.7a1,1,0,0,0,.71.3,7.13,7.13,0,0,1-1.41.7,11.56,11.56,0,0,0-1.8.9.82.82,0,0,0,.6.2h14.86a4.81,4.81,0,0,1,.6,1.4,7.45,7.45,0,0,0,.6,1.6h15.26v59.8h-48.4V147.6l-7.2-3.8c.8-.4,1.67-.8,2.6-1.2a21.18,21.18,0,0,0,3-1.6,10.3,10.3,0,0,0-2.6-1.6,22.32,22.32,0,0,1-3-1.6l5.6-2.8a10.3,10.3,0,0,0-2.6-1.6,22.32,22.32,0,0,1-3-1.6l2.4-1.2,3.2-1.6q-1.59-1-3-1.8c-.93-.53-1.8-1-2.6-1.4,1.2-.53,2.44-1.1,3.7-1.7a32.7,32.7,0,0,0,3.5-1.9V99.6h13a3.43,3.43,0,0,0,1.9-.8,16.42,16.42,0,0,1,2.3-1.4c-.26-.27-.36-.43-.3-.5s-.16-.1-.7-.1h-16.2V87.4h16.4a.82.82,0,0,0-.6-.2h-2c-1.06,0-2.7,0-4.9.1l-8.9.3V83.8L741,82.2q5.22,0,8.23.1c2,.07,3.51.1,4.52.1a10.39,10.39,0,0,0,1.91-.1.9.9,0,0,0,.6-.5l-.4-.2a68.32,68.32,0,0,0-7.93-.4,73.86,73.86,0,0,0-8.14.4V80h16.4V77h-16.4V6h48.6V60.4h52.8V54.2h49v60.6Zm-118.2-8.4a8.79,8.79,0,0,0-.1-1.3,10.4,10.4,0,0,1-.1-1.3h-2a13,13,0,0,1,1,1.5A2.79,2.79,0,0,0,783.19,106.4Zm2,0a9.74,9.74,0,0,0-.1-1.6,7.13,7.13,0,0,1-.1-1h-1.6a2.46,2.46,0,0,0,.6,1.4A5.22,5.22,0,0,0,785.19,106.4Zm2.2-2.6h-1.6c.13.4.3.87.5,1.4a2.43,2.43,0,0,0,.9,1.2,1.77,1.77,0,0,0,.3-1.3A8.79,8.79,0,0,1,787.39,103.8Zm22.2-13.6v-.6l-1.8-.4v.6Zm1.8-.6-1.6-.4v.6l1.4.4ZM847,82.2l-5,5h-18.6c.27-.8.53-1.63.8-2.5s.54-1.7.8-2.5Zm-16.6,24.6a11.28,11.28,0,0,0-.5,2.7,17.66,17.66,0,0,1-.3,2.5,10.3,10.3,0,0,0,.6-2.5A19.53,19.53,0,0,0,830.39,106.8Zm1.2.2h-.8l-.4,5.4h.6Zm1,0H832l-.8,5.4h.6Zm2.6-.2a2.81,2.81,0,0,0-.4,1.6,5.29,5.29,0,0,1-.4,2,4.79,4.79,0,0,1-.4-1.6v-1.6c0,.93-.13,1.47-.4,1.6a2.09,2.09,0,0,1-.4-1.1v-.9a7,7,0,0,0-.4,2.6v2.8a7.49,7.49,0,0,1,.4-3,4.55,4.55,0,0,1,.4,1.6V112a1.67,1.67,0,0,1,.4-1.2,1.14,1.14,0,0,1,.4.8v.8a8.42,8.42,0,0,0,.4-2.7A10.36,10.36,0,0,1,835.19,106.8Zm1.2.2h-.8l-.4,5.4h.6Zm1.6-.2a5.48,5.48,0,0,0-.4,2,5.29,5.29,0,0,1-.4,2,5.29,5.29,0,0,1-.4-2v-2a20.9,20.9,0,0,1-.2,2.9,20.11,20.11,0,0,0-.2,2.5,1.39,1.39,0,0,1,.4-1,1.63,1.63,0,0,1,.4,1.2,20.59,20.59,0,0,0,.3-2.8A9.52,9.52,0,0,1,838,106.8Zm1.2.2h-.8l-.4,5.4h.6Zm1.6-.2a5.48,5.48,0,0,0-.4,2,5.29,5.29,0,0,1-.4,2,5.27,5.27,0,0,1-.4-1.9V107a19.53,19.53,0,0,1-.2,2.7,20.11,20.11,0,0,0-.2,2.5,1.39,1.39,0,0,1,.4-1,1.63,1.63,0,0,1,.4,1.2,19.09,19.09,0,0,0,.3-2.8A9.52,9.52,0,0,1,840.79,106.8Zm.8,5.6h-.8v-3.8h.8Zm.4,8.8h-.8v-3h.8ZM890.19,36h-14.8V47.6h14.8v4h-48.8V47.8h2.4V36.45a1.49,1.49,0,0,0-1.1-.39h-1.3V6h48.8Zm0,126.4h-48.8V130.2h21.4c.27,1.2.5,2.37.7,3.5a32.82,32.82,0,0,0,.9,3.7h25.8V147H865v2.2h25.2Zm-47-44.2-1,8.2h-.6l.8-8.2Zm.8,0-.6,8.2h-.6l.4-8.2Zm.8-.2c0,1.2-.06,2.5-.2,3.9s-.2,2.83-.2,4.3v-3.9A24.67,24.67,0,0,1,844.79,118Zm1.6.2-1,8.2h-.6l.8-8.2Zm.8-.2a20.8,20.8,0,0,0-.5,4.1c-.06,1.67-.16,3.1-.3,4.3,0-1.47.07-2.93.2-4.4A32.31,32.31,0,0,1,847.19,118Zm1.2.2-.6,8.2h-.6l.4-8.2Zm5-70.6V36.2h-6V47.6Zm-3.8,70.6-1,8.2H848l.8-8.2Zm1.2,0-1,8.2h-.6l.8-8.2Zm.8,0-.6,8.2h-.6l.4-8.2Zm8.2-70.6V36.2h-4V47.6Z"/></g></g></svg>